<svg clip-rule="evenodd" fill-rule="evenodd" height="512" stroke-linejoin="round" stroke-miterlimit="2" viewBox="0 0 32 32" width="512" xmlns="http://www.w3.org/2000/svg" xmlns:xlink="http://www.w3.org/1999/xlink"><linearGradient id="_Linear1" gradientTransform="matrix(28 -28.028 28.028 28 194 126.014)" gradientUnits="userSpaceOnUse" x1="0" x2="1" y1="0" y2="0"><stop offset="0" stop-color="#cb01ff"/><stop offset="1" stop-color="#34cbff"/></linearGradient><g transform="translate(-192 -96)"><path d="m197.337 98.699c.713 6.503 3.854 10.849 9.125 13.301-5.271 2.452-8.412 6.798-9.125 13.301h-1.792c-.386 0-.699.313-.699.699s.313.699.699.699h24.91c.386 0 .699-.313.699-.699s-.313-.699-.699-.699h-1.792c-.713-6.503-3.854-10.849-9.125-13.301 5.271-2.452 8.412-6.798 9.125-13.301h1.792c.386 0 .699-.313.699-.699s-.313-.699-.699-.699h-24.91c-.386 0-.699.313-.699.699s.313.699.699.699zm19.919 26.602h-18.512c.729-6.216 3.886-10.272 9.194-12.418l.002-.001h.12c5.31 2.146 8.467 6.203 9.196 12.419zm-9.287-5.703c.019-.001.038 0 .056 0 .031 0 .057.001.085.004.041.004.16.021.16.021.024.007.049.014.072.02.012.003.023.007.035.01 2.816.802 4.405 2.38 4.689 4.743.024.199-.038.398-.171.548-.133.149-.323.235-.523.235h-8.744c-.2 0-.39-.086-.523-.235-.133-.15-.195-.349-.171-.548.285-2.368 1.879-3.946 4.703-4.747s.005-.001.014-.004c.026-.007.054-.018.079-.022.006-.001.027-.004.051-.008.046-.007.118-.012.188-.017zm.03 1.402c1.832.523 3.045 1.415 3.505 2.781h-7.008c.46-1.366 1.672-2.258 3.503-2.781zm.7-2.325v-1.479c0-.386-.313-.699-.699-.699s-.699.313-.699.699v1.479c0 .386.313.699.699.699s.699-.313.699-.699zm0-3.287v-1.135c0-.386-.313-.699-.699-.699s-.699.313-.699.699v1.135c0 .386.313.699.699.699s.699-.313.699-.699zm8.557-16.689c-.729 6.217-3.886 10.273-9.197 12.419h-.118c-5.311-2.146-8.468-6.202-9.197-12.419zm-9.367 11.252h.222c.047-.004.093-.011.138-.024 2.251-.619 3.51-1.868 3.735-3.737.024-.199-.039-.398-.171-.548-.133-.149-.323-.235-.523-.235h-6.58c-.2 0-.39.086-.523.235-.132.15-.195.349-.171.548.225 1.869 1.484 3.118 3.735 3.737.045.013.091.02.138.024zm.111-1.407c-1.181-.345-2.003-.902-2.382-1.739h4.763c-.378.837-1.2 1.394-2.381 1.739z" fill="url(#_Linear1)"/></g></svg>