<svg id="Capa_1" enable-background="new 0 0 512 512" height="512" viewBox="0 0 512 512" width="512" xmlns="http://www.w3.org/2000/svg" xmlns:xlink="http://www.w3.org/1999/xlink"><linearGradient id="SVGID_1_" gradientUnits="userSpaceOnUse" x1="0" x2="512" y1="256" y2="256"><stop offset="0" stop-color="#80d8ff"/><stop offset="1" stop-color="#ea80fc"/></linearGradient><g><path d="m427.252 93.939c-42.503-26.268-97.046-35.291-143.541-25.641.004-.007.007-.014.01-.021 9.515-19.027 26.179-28.277 50.946-28.277 11.046 0 20-8.954 20-20s-8.954-20-20-20c-31.583 0-59.971 11.109-78.667 37.029-18.695-25.918-47.082-37.029-78.667-37.029-11.046 0-20 8.954-20 20s8.954 20 20 20c24.333 0 40.828 8.919 50.428 27.267.18.343.351.687.523 1.031-101.632-21.092-228.284 42.22-228.284 187.66 0 138.904 96.599 256.042 256 256.042 159.009 0 256-116.731 256-256.042 0-70.703-30.098-128.243-84.748-162.019zm-180.196 22.616c5.618 2.809 12.287 2.8 17.889 0 68.531-34.269 218.655-.395 206.296 158.778h-96.574v-19.333c0-11.046-8.954-20-20-20s-20 8.954-20 20v19.333h-58.667v-58.667c0-11.046-8.954-20-20-20s-20 8.954-20 20v58.667h-58.667v-19.333c0-11.046-8.954-20-20-20s-20 8.954-20 20v19.333h-96.573c-12.239-157.621 136.459-193.695 206.296-158.778zm8.944 355.445c-111.908 0-185.684-65.315-208.727-156.667h417.453c-22.998 91.175-96.611 156.667-208.726 156.667zm33.809-92.476c7.811 7.811 7.811 20.474 0 28.284-7.811 7.811-20.474 7.81-28.284 0l-5.525-5.524-5.524 5.524c-7.811 7.811-20.474 7.811-28.284 0s-7.811-20.474 0-28.284l19.667-19.667c7.811-7.811 20.474-7.811 28.284 0z" fill="url(#SVGID_1_)"/></g></svg>